<mxfile host="app.diagrams.net" agent="Mozilla/5.0 (Windows NT 10.0; Win64; x64) AppleWebKit/537.36 (KHTML, like Gecko) Chrome/131.0.0.0 Safari/537.36" version="28.0.4">
  <diagram name="第 1 页" id="31VpLzPOIbkTpqz7xZiy">
    <mxGraphModel dx="786" dy="425" grid="1" gridSize="10" guides="1" tooltips="1" connect="1" arrows="1" fold="1" page="1" pageScale="1" pageWidth="827" pageHeight="1169" math="0" shadow="0">
      <root>
        <mxCell id="0" />
        <mxCell id="1" parent="0" />
        <mxCell id="jVlSdeAX1S8ugC022u8K-1" value="" style="edgeStyle=orthogonalEdgeStyle;rounded=0;orthogonalLoop=1;jettySize=auto;html=1;" edge="1" parent="1" source="jVlSdeAX1S8ugC022u8K-2" target="jVlSdeAX1S8ugC022u8K-19">
          <mxGeometry relative="1" as="geometry">
            <mxPoint x="690" y="210" as="targetPoint" />
          </mxGeometry>
        </mxCell>
        <mxCell id="jVlSdeAX1S8ugC022u8K-2" value="&lt;font&gt;exetend0&lt;/font&gt;" style="rounded=0;whiteSpace=wrap;html=1;hachureGap=4;fontFamily=Helvetica;labelBackgroundColor=none;fillColor=#e1d5e7;strokeColor=#9673a6;" vertex="1" parent="1">
          <mxGeometry x="430" y="230" width="170" height="30" as="geometry" />
        </mxCell>
        <mxCell id="jVlSdeAX1S8ugC022u8K-3" value="exetend1" style="rounded=0;whiteSpace=wrap;html=1;hachureGap=4;fontFamily=Helvetica;labelBackgroundColor=none;fillColor=#e1d5e7;strokeColor=#9673a6;" vertex="1" parent="1">
          <mxGeometry x="430" y="260" width="170" height="30" as="geometry" />
        </mxCell>
        <mxCell id="jVlSdeAX1S8ugC022u8K-4" value="exetend2" style="rounded=0;whiteSpace=wrap;html=1;hachureGap=4;fontFamily=Helvetica;labelBackgroundColor=none;fillColor=#e1d5e7;strokeColor=#9673a6;" vertex="1" parent="1">
          <mxGeometry x="430" y="290" width="170" height="30" as="geometry" />
        </mxCell>
        <mxCell id="jVlSdeAX1S8ugC022u8K-5" value="... ..." style="rounded=0;whiteSpace=wrap;html=1;hachureGap=4;fontFamily=Helvetica;labelBackgroundColor=none;fillColor=#e1d5e7;strokeColor=#9673a6;" vertex="1" parent="1">
          <mxGeometry x="430" y="320" width="170" height="30" as="geometry" />
        </mxCell>
        <mxCell id="jVlSdeAX1S8ugC022u8K-6" value="exetend255" style="rounded=0;whiteSpace=wrap;html=1;hachureGap=4;fontFamily=Helvetica;labelBackgroundColor=none;fillColor=#e1d5e7;strokeColor=#9673a6;" vertex="1" parent="1">
          <mxGeometry x="430" y="350" width="170" height="30" as="geometry" />
        </mxCell>
        <mxCell id="jVlSdeAX1S8ugC022u8K-7" style="edgeStyle=orthogonalEdgeStyle;rounded=0;orthogonalLoop=1;jettySize=auto;html=1;" edge="1" parent="1" source="jVlSdeAX1S8ugC022u8K-8" target="jVlSdeAX1S8ugC022u8K-24">
          <mxGeometry relative="1" as="geometry" />
        </mxCell>
        <mxCell id="jVlSdeAX1S8ugC022u8K-8" value="exetend256" style="rounded=0;whiteSpace=wrap;html=1;hachureGap=4;fontFamily=Helvetica;labelBackgroundColor=none;fillColor=#ffe6cc;strokeColor=#d79b00;" vertex="1" parent="1">
          <mxGeometry x="430" y="380" width="170" height="30" as="geometry" />
        </mxCell>
        <mxCell id="jVlSdeAX1S8ugC022u8K-9" value="..." style="rounded=0;whiteSpace=wrap;html=1;hachureGap=4;fontFamily=Helvetica;labelBackgroundColor=none;fillColor=#ffe6cc;strokeColor=#d79b00;" vertex="1" parent="1">
          <mxGeometry x="430" y="410" width="170" height="30" as="geometry" />
        </mxCell>
        <mxCell id="jVlSdeAX1S8ugC022u8K-10" value="exetend511" style="rounded=0;whiteSpace=wrap;html=1;hachureGap=4;fontFamily=Helvetica;labelBackgroundColor=none;fillColor=#ffe6cc;strokeColor=#d79b00;" vertex="1" parent="1">
          <mxGeometry x="430" y="440" width="170" height="30" as="geometry" />
        </mxCell>
        <mxCell id="jVlSdeAX1S8ugC022u8K-11" value="" style="shape=curlyBracket;whiteSpace=wrap;html=1;rounded=1;labelPosition=left;verticalLabelPosition=middle;align=right;verticalAlign=middle;" vertex="1" parent="1">
          <mxGeometry x="400" y="230" width="20" height="150" as="geometry" />
        </mxCell>
        <mxCell id="jVlSdeAX1S8ugC022u8K-12" value="分组1" style="text;html=1;align=center;verticalAlign=middle;resizable=0;points=[];autosize=1;strokeColor=none;fillColor=none;" vertex="1" parent="1">
          <mxGeometry x="340" y="290" width="50" height="30" as="geometry" />
        </mxCell>
        <mxCell id="jVlSdeAX1S8ugC022u8K-13" value="" style="shape=curlyBracket;whiteSpace=wrap;html=1;rounded=1;labelPosition=left;verticalLabelPosition=middle;align=right;verticalAlign=middle;" vertex="1" parent="1">
          <mxGeometry x="400" y="380" width="20" height="90" as="geometry" />
        </mxCell>
        <mxCell id="jVlSdeAX1S8ugC022u8K-14" value="分组2" style="text;html=1;align=center;verticalAlign=middle;resizable=0;points=[];autosize=1;strokeColor=none;fillColor=none;" vertex="1" parent="1">
          <mxGeometry x="340" y="410" width="50" height="30" as="geometry" />
        </mxCell>
        <mxCell id="jVlSdeAX1S8ugC022u8K-15" value="&lt;font&gt;FSP_HDR&lt;/font&gt;" style="rounded=0;whiteSpace=wrap;html=1;hachureGap=4;fontFamily=Helvetica;labelBackgroundColor=none;fillColor=#e1d5e7;strokeColor=#9673a6;" vertex="1" parent="1">
          <mxGeometry x="720" y="230" width="170" height="30" as="geometry" />
        </mxCell>
        <mxCell id="jVlSdeAX1S8ugC022u8K-16" value="IBUF_BITMAP" style="rounded=0;whiteSpace=wrap;html=1;hachureGap=4;fontFamily=Helvetica;labelBackgroundColor=none;fillColor=#e1d5e7;strokeColor=#9673a6;" vertex="1" parent="1">
          <mxGeometry x="720" y="260" width="170" height="30" as="geometry" />
        </mxCell>
        <mxCell id="jVlSdeAX1S8ugC022u8K-17" value="INODE" style="rounded=0;whiteSpace=wrap;html=1;hachureGap=4;fontFamily=Helvetica;labelBackgroundColor=none;fillColor=#e1d5e7;strokeColor=#9673a6;" vertex="1" parent="1">
          <mxGeometry x="720" y="290" width="170" height="30" as="geometry" />
        </mxCell>
        <mxCell id="jVlSdeAX1S8ugC022u8K-18" value="... ..." style="rounded=0;whiteSpace=wrap;html=1;hachureGap=4;fontFamily=Helvetica;labelBackgroundColor=none;fillColor=#e1d5e7;strokeColor=#9673a6;" vertex="1" parent="1">
          <mxGeometry x="720" y="320" width="170" height="30" as="geometry" />
        </mxCell>
        <mxCell id="jVlSdeAX1S8ugC022u8K-19" value="extend0的各个页" style="text;html=1;align=center;verticalAlign=middle;resizable=0;points=[];autosize=1;strokeColor=none;fillColor=none;" vertex="1" parent="1">
          <mxGeometry x="740" y="200" width="110" height="30" as="geometry" />
        </mxCell>
        <mxCell id="jVlSdeAX1S8ugC022u8K-20" value="表空间结构" style="text;html=1;align=center;verticalAlign=middle;resizable=0;points=[];autosize=1;strokeColor=none;fillColor=none;" vertex="1" parent="1">
          <mxGeometry x="475" y="200" width="80" height="30" as="geometry" />
        </mxCell>
        <mxCell id="jVlSdeAX1S8ugC022u8K-21" value="&lt;font&gt;XDES&lt;/font&gt;" style="rounded=0;whiteSpace=wrap;html=1;hachureGap=4;fontFamily=Helvetica;labelBackgroundColor=none;fillColor=#ffe6cc;strokeColor=#d79b00;" vertex="1" parent="1">
          <mxGeometry x="720" y="400" width="170" height="30" as="geometry" />
        </mxCell>
        <mxCell id="jVlSdeAX1S8ugC022u8K-22" value="IBUF_BITMAP" style="rounded=0;whiteSpace=wrap;html=1;hachureGap=4;fontFamily=Helvetica;labelBackgroundColor=none;fillColor=#ffe6cc;strokeColor=#d79b00;" vertex="1" parent="1">
          <mxGeometry x="720" y="430" width="170" height="30" as="geometry" />
        </mxCell>
        <mxCell id="jVlSdeAX1S8ugC022u8K-23" value="... ..." style="rounded=0;whiteSpace=wrap;html=1;hachureGap=4;fontFamily=Helvetica;labelBackgroundColor=none;fillColor=#ffe6cc;strokeColor=#d79b00;" vertex="1" parent="1">
          <mxGeometry x="720" y="460" width="170" height="30" as="geometry" />
        </mxCell>
        <mxCell id="jVlSdeAX1S8ugC022u8K-24" value="extend256的各个页" style="text;html=1;align=center;verticalAlign=middle;resizable=0;points=[];autosize=1;strokeColor=none;fillColor=none;" vertex="1" parent="1">
          <mxGeometry x="730" y="370" width="130" height="30" as="geometry" />
        </mxCell>
        <mxCell id="jVlSdeAX1S8ugC022u8K-25" value="Segment ID" style="rounded=0;whiteSpace=wrap;html=1;hachureGap=4;fontFamily=Helvetica;labelBackgroundColor=none;fillColor=#ffe6cc;strokeColor=#d79b00;" vertex="1" parent="1">
          <mxGeometry x="550" y="880" width="170" height="30" as="geometry" />
        </mxCell>
        <mxCell id="jVlSdeAX1S8ugC022u8K-26" value="Link Node" style="rounded=0;whiteSpace=wrap;html=1;hachureGap=4;fontFamily=Helvetica;labelBackgroundColor=none;fillColor=#ffe6cc;strokeColor=#d79b00;" vertex="1" parent="1">
          <mxGeometry x="550" y="910" width="170" height="30" as="geometry" />
        </mxCell>
        <mxCell id="jVlSdeAX1S8ugC022u8K-27" value="State" style="rounded=0;whiteSpace=wrap;html=1;hachureGap=4;fontFamily=Helvetica;labelBackgroundColor=none;fillColor=#ffe6cc;strokeColor=#d79b00;" vertex="1" parent="1">
          <mxGeometry x="550" y="940" width="170" height="30" as="geometry" />
        </mxCell>
        <mxCell id="jVlSdeAX1S8ugC022u8K-28" value="XDES Entry结构" style="text;html=1;align=center;verticalAlign=middle;resizable=0;points=[];autosize=1;strokeColor=none;fillColor=none;" vertex="1" parent="1">
          <mxGeometry x="570" y="850" width="110" height="30" as="geometry" />
        </mxCell>
        <mxCell id="jVlSdeAX1S8ugC022u8K-29" value="Page State Bitmap" style="rounded=0;whiteSpace=wrap;html=1;hachureGap=4;fontFamily=Helvetica;labelBackgroundColor=none;fillColor=#ffe6cc;strokeColor=#d79b00;" vertex="1" parent="1">
          <mxGeometry x="550" y="970" width="170" height="30" as="geometry" />
        </mxCell>
        <mxCell id="jVlSdeAX1S8ugC022u8K-30" value="指向前后XDES Entry" style="text;html=1;align=center;verticalAlign=middle;resizable=0;points=[];autosize=1;strokeColor=none;fillColor=none;" vertex="1" parent="1">
          <mxGeometry x="720" y="910" width="140" height="30" as="geometry" />
        </mxCell>
        <mxCell id="jVlSdeAX1S8ugC022u8K-31" value="NOT_FULL_N_USED" style="rounded=0;whiteSpace=wrap;html=1;hachureGap=4;fontFamily=Helvetica;labelBackgroundColor=none;fillColor=#ffe6cc;strokeColor=#d79b00;" vertex="1" parent="1">
          <mxGeometry x="550" y="560" width="170" height="30" as="geometry" />
        </mxCell>
        <mxCell id="jVlSdeAX1S8ugC022u8K-32" value="FREE BASE" style="rounded=0;whiteSpace=wrap;html=1;hachureGap=4;fontFamily=Helvetica;labelBackgroundColor=none;fillColor=#ffe6cc;strokeColor=#d79b00;" vertex="1" parent="1">
          <mxGeometry x="550" y="590" width="170" height="30" as="geometry" />
        </mxCell>
        <mxCell id="jVlSdeAX1S8ugC022u8K-33" value="NOT_FULL BASE" style="rounded=0;whiteSpace=wrap;html=1;hachureGap=4;fontFamily=Helvetica;labelBackgroundColor=none;fillColor=#ffe6cc;strokeColor=#d79b00;" vertex="1" parent="1">
          <mxGeometry x="550" y="620" width="170" height="30" as="geometry" />
        </mxCell>
        <mxCell id="jVlSdeAX1S8ugC022u8K-34" value="INODE Entry结构" style="text;html=1;align=center;verticalAlign=middle;resizable=0;points=[];autosize=1;strokeColor=none;fillColor=none;" vertex="1" parent="1">
          <mxGeometry x="565" y="530" width="120" height="30" as="geometry" />
        </mxCell>
        <mxCell id="jVlSdeAX1S8ugC022u8K-35" value="FULL BASE" style="rounded=0;whiteSpace=wrap;html=1;hachureGap=4;fontFamily=Helvetica;labelBackgroundColor=none;fillColor=#ffe6cc;strokeColor=#d79b00;" vertex="1" parent="1">
          <mxGeometry x="550" y="650" width="170" height="30" as="geometry" />
        </mxCell>
        <mxCell id="jVlSdeAX1S8ugC022u8K-36" value="指向前后XDES Entry" style="text;html=1;align=center;verticalAlign=middle;resizable=0;points=[];autosize=1;strokeColor=none;fillColor=none;" vertex="1" parent="1">
          <mxGeometry x="720" y="590" width="140" height="30" as="geometry" />
        </mxCell>
        <mxCell id="jVlSdeAX1S8ugC022u8K-37" value="Magic Number" style="rounded=0;whiteSpace=wrap;html=1;hachureGap=4;fontFamily=Helvetica;labelBackgroundColor=none;fillColor=#ffe6cc;strokeColor=#d79b00;" vertex="1" parent="1">
          <mxGeometry x="550" y="680" width="170" height="30" as="geometry" />
        </mxCell>
        <mxCell id="jVlSdeAX1S8ugC022u8K-38" value="Fragment Array Entry 0" style="rounded=0;whiteSpace=wrap;html=1;hachureGap=4;fontFamily=Helvetica;labelBackgroundColor=none;fillColor=#ffe6cc;strokeColor=#d79b00;" vertex="1" parent="1">
          <mxGeometry x="550" y="710" width="170" height="30" as="geometry" />
        </mxCell>
        <mxCell id="jVlSdeAX1S8ugC022u8K-39" value="Fragment Array Entry 1" style="rounded=0;whiteSpace=wrap;html=1;hachureGap=4;fontFamily=Helvetica;labelBackgroundColor=none;fillColor=#ffe6cc;strokeColor=#d79b00;" vertex="1" parent="1">
          <mxGeometry x="550" y="740" width="170" height="30" as="geometry" />
        </mxCell>
        <mxCell id="jVlSdeAX1S8ugC022u8K-40" value="... ..." style="rounded=0;whiteSpace=wrap;html=1;hachureGap=4;fontFamily=Helvetica;labelBackgroundColor=none;fillColor=#ffe6cc;strokeColor=#d79b00;" vertex="1" parent="1">
          <mxGeometry x="550" y="770" width="170" height="30" as="geometry" />
        </mxCell>
        <mxCell id="jVlSdeAX1S8ugC022u8K-41" value="Fragment Array Entry 32" style="rounded=0;whiteSpace=wrap;html=1;hachureGap=4;fontFamily=Helvetica;labelBackgroundColor=none;fillColor=#ffe6cc;strokeColor=#d79b00;" vertex="1" parent="1">
          <mxGeometry x="550" y="800" width="170" height="30" as="geometry" />
        </mxCell>
        <mxCell id="jVlSdeAX1S8ugC022u8K-42" value="零散页面" style="text;html=1;align=center;verticalAlign=middle;resizable=0;points=[];autosize=1;strokeColor=none;fillColor=none;" vertex="1" parent="1">
          <mxGeometry x="755" y="710" width="70" height="30" as="geometry" />
        </mxCell>
        <mxCell id="jVlSdeAX1S8ugC022u8K-43" value="&lt;font&gt;exetend0&lt;/font&gt;" style="rounded=0;whiteSpace=wrap;html=1;hachureGap=4;fontFamily=Helvetica;labelBackgroundColor=none;fillColor=#e1d5e7;strokeColor=#9673a6;" vertex="1" parent="1">
          <mxGeometry x="1000" y="230" width="170" height="30" as="geometry" />
        </mxCell>
        <mxCell id="jVlSdeAX1S8ugC022u8K-44" value="exetend1" style="rounded=0;whiteSpace=wrap;html=1;hachureGap=4;fontFamily=Helvetica;labelBackgroundColor=none;fillColor=#e1d5e7;strokeColor=#9673a6;" vertex="1" parent="1">
          <mxGeometry x="1000" y="260" width="170" height="30" as="geometry" />
        </mxCell>
        <mxCell id="jVlSdeAX1S8ugC022u8K-45" value="exetend2" style="rounded=0;whiteSpace=wrap;html=1;hachureGap=4;fontFamily=Helvetica;labelBackgroundColor=none;fillColor=#e1d5e7;strokeColor=#9673a6;" vertex="1" parent="1">
          <mxGeometry x="1000" y="290" width="170" height="30" as="geometry" />
        </mxCell>
        <mxCell id="jVlSdeAX1S8ugC022u8K-46" value="... ..." style="rounded=0;whiteSpace=wrap;html=1;hachureGap=4;fontFamily=Helvetica;labelBackgroundColor=none;fillColor=#e1d5e7;strokeColor=#9673a6;" vertex="1" parent="1">
          <mxGeometry x="1000" y="320" width="170" height="30" as="geometry" />
        </mxCell>
        <mxCell id="jVlSdeAX1S8ugC022u8K-47" value="exetend255" style="rounded=0;whiteSpace=wrap;html=1;hachureGap=4;fontFamily=Helvetica;labelBackgroundColor=none;fillColor=#e1d5e7;strokeColor=#9673a6;" vertex="1" parent="1">
          <mxGeometry x="1000" y="350" width="170" height="30" as="geometry" />
        </mxCell>
        <mxCell id="jVlSdeAX1S8ugC022u8K-48" value="" style="shape=curlyBracket;whiteSpace=wrap;html=1;rounded=1;labelPosition=left;verticalLabelPosition=middle;align=right;verticalAlign=middle;" vertex="1" parent="1">
          <mxGeometry x="970" y="230" width="20" height="150" as="geometry" />
        </mxCell>
        <mxCell id="jVlSdeAX1S8ugC022u8K-49" value="FSP_HDR页面" style="text;html=1;align=center;verticalAlign=middle;resizable=0;points=[];autosize=1;strokeColor=none;fillColor=none;" vertex="1" parent="1">
          <mxGeometry x="1035" y="200" width="100" height="30" as="geometry" />
        </mxCell>
      </root>
    </mxGraphModel>
  </diagram>
</mxfile>
